# xmcd
#
# Track frame offsets: 
#        150
#        6600
#        25200
#        44025
#        60375
#        80625
#        95025
#        113325
#        130125
#        144225
#        161775
#        164513
#        181838
#        197513
#        214238
#        229238
#        248138
#        263513
#        281063
#        297863
#        311963
#        324713
#        338963
#        355613
#
# Disc length: 4791 seconds
#
# Revision: 0
# Processed by: cddbd v1.5.2PL0 Copyright (c) Steve Scherf et al.
# Submitted via: ExactAudioCopy v0.99pb5
#
DISCID=6a12b518
DTITLE=Majik Click - Swiv Nou
DYEAR=2009
DGENRE=Hip-Hop
TTITLE0=Intro
TTITLE1=Dejenerasyon
TTITLE2=Tyèmondis
TTITLE3=High Level
TTITLE4=Tout sa n fè
TTITLE5=Ibolele
TTITLE6=Jan nou viv
TTITLE7=Li lè
TTITLE8=Rapmatik
TTITLE9=Noupalavèw
TTITLE10=Pa gen piyay [skit]
TTITLE11=Si m pa genyen
TTITLE12=Anbyans Majik
TTITLE13=Nap montre yo
TTITLE14=Li toujou la
TTITLE15=Swiv nou
TTITLE16=Silans konn pale
TTITLE17=Fantastik
TTITLE18=Sad story
TTITLE19=2è chans
TTITLE20=An avans tout tan
TTITLE21=San pou san
TTITLE22=Rejenerasyon
TTITLE23=Outro
EXTD=
EXTT0=
EXTT1=
EXTT2=
EXTT3=
EXTT4=
EXTT5=
EXTT6=
EXTT7=
EXTT8=
EXTT9=
EXTT10=
EXTT11=
EXTT12=
EXTT13=
EXTT14=
EXTT15=
EXTT16=
EXTT17=
EXTT18=
EXTT19=
EXTT20=
EXTT21=
EXTT22=
EXTT23=
PLAYORDER=
